<?xml version="1.0"?>
<svg version="1.1" xmlns="http://www.w3.org/2000/svg" xmlns:xlink="http://www.w3.org/1999/xlink" width="514" height="514">
    <defs>
    <filter id="f3" x="0" y="0" width="140%" height="140%">
      <feOffset result="offOut" in="SourceAlpha" dx="10" dy="10" />
      <feGaussianBlur result="blurOut" in="offOut" stdDeviation="10" />
      <feBlend in="SourceGraphic" in2="blurOut" mode="normal" />
    </filter>
  </defs>
    <g id="Layer1" name="Layer 1" opacity="1" filter="url(#f3)" >
        <g id="Shape1">
            <desc shapeID="1" type="0" basicInfo-basicType="0" basicInfo-roundedRectRadius="12" basicInfo-polygonSides="6" basicInfo-starPoints="5" bounding="rect(-63.5354,-255.355,127.071,510.71)" text="" font-familyName="" font-pixelSize="20" font-bold="0" font-underline="0" font-alignment="1" strokeStyle="0" markerStart="0" markerEnd="0" shadowEnabled="0" shadowOffsetX="0" shadowOffsetY="2" shadowBlur="4" shadowOpacity="160" blurEnabled="0" blurRadius="4" transform="matrix(1,0,0,1,145.215,258.645)" pers-center="0,0" pers-size="0,0" pers-start="0,0" pers-end="0,0" locked="0" mesh="" flag=""/>
            <path id="shapePath1" d="M188.98,3.28999 C189.77,3.58 190.14,3.99001 190.1,4.52 C189.22,5.55 188.56,6.74001 187.89,7.91 C175.7,32.35 168.23,59 164.66,86.03 C164.12,94.71 162.66,103.33 162.56,112.05 C162.55,123.02 162.36,134.04 163.62,144.96 C164.69,151.57 164.2,158.36 165.89,164.89 C167.86,181.42 171.99,197.61 176.16,213.71 C184.34,243.02 193.51,272.3 207.7,299.33 C208.08,300.57 209.39,302.23 208.37,303.41 C177.83,331.87 150.8,364.89 133.04,402.91 C124.18,422.12 117.69,442.77 116.98,464.03 C116.4,481.76 120.84,500.34 132.66,514 L131.87,514 C123.1,506.7 116.42,496.88 112.97,486.01 C107.79,469.55 108.7,451.86 112.36,435.2 C113.23,432.23 114.03,429.12 113.53,426.01 C105.51,425.43 96.96,423.94 90.93,418.12 C84.04,412.13 81.94,402.71 81.68,393.97 C81.68,298.31 81.68,202.65 81.68,106.98 C81.82,97.54 84.63,87.44 92.55,81.57 C99.02,76.03 107.86,75.48 115.99,75.41 C129.5,75.52 143.01,75.32 156.52,75.52 C159.51,72.38 159.73,67.88 161.01,63.95 C166.99,44.43 175.16,25.45 186.45,8.39999 C187.42,6.75999 188.14,5 188.98,3.28999 Z" style="stroke:none;fill-rule:nonzero;fill:#32e132;fill-opacity:1;"/>
        </g>
        <g id="Shape2">
            <desc shapeID="2" type="0" basicInfo-basicType="0" basicInfo-roundedRectRadius="12" basicInfo-polygonSides="6" basicInfo-starPoints="5" bounding="rect(-90.55,-51.46,181.1,102.92)" text="" font-familyName="" font-pixelSize="20" font-bold="0" font-underline="0" font-alignment="1" strokeStyle="0" markerStart="0" markerEnd="0" shadowEnabled="0" shadowOffsetX="0" shadowOffsetY="2" shadowBlur="4" shadowOpacity="160" blurEnabled="0" blurRadius="4" transform="matrix(1,0,0,1,257.58,390.32)" pers-center="0,0" pers-size="0,0" pers-start="0,0" pers-end="0,0" locked="0" mesh="" flag=""/>
            <path id="shapePath2" d="M170.33,418.32 C186.1,389 206.97,362.71 230.09,338.86 C235.38,345.31 239.81,352.42 245.09,358.88 C251.21,365.78 256.74,373.2 263.45,379.54 C270.49,387.83 278.89,394.76 286.99,401.95 C303.48,416.03 321.67,428.11 340.95,438.05 C343.37,439.23 346.26,439.69 348.13,441.78 C345.62,441.63 343.63,439.88 341.24,439.3 C330.14,435.74 319.58,430.83 309.07,425.85 C305.78,425.23 302.39,425.67 299.05,425.56 C255.04,425.48 211.03,425.72 167.03,425.45 C167.52,422.82 169.14,420.65 170.33,418.32 Z" style="stroke:none;fill-rule:nonzero;fill:#32e132;fill-opacity:1;"/>
        </g>
        <g id="Shape3">
            <desc shapeID="3" type="0" basicInfo-basicType="0" basicInfo-roundedRectRadius="12" basicInfo-polygonSides="6" basicInfo-starPoints="5" bounding="rect(-116.91,-175.062,233.82,350.125)" text="" font-familyName="Helvetica" font-pixelSize="20" font-bold="0" font-underline="0" font-alignment="1" strokeStyle="0" markerStart="0" markerEnd="0" shadowEnabled="0" shadowOffsetX="0" shadowOffsetY="2" shadowBlur="4" shadowOpacity="160" blurEnabled="0" blurRadius="4" transform="matrix(1,0,0,1,315.27,250.562)" pers-center="0,0" pers-size="0,0" pers-start="0,0" pers-end="0,0" locked="0" mesh="" flag=""/>
            <path id="shapePath3" d="M198.5,75.5 C265.5,75.5 332,75.5 399,75.5 C407,75.5 416.5,76.5 422.5,82.5 C429.5,88.5 432,98 432,107 C432,200.5 432,294.5 432,388 C432.5,394.5 432,401.5 430,408 C426,418.5 414.5,426 403,425.5 C389.5,425.5 376.5,426 363,425 C340,407 319.5,386 301,363.5 C259,311 227,250 211.5,185 C209.5,173 206.5,161.5 205,150 C203.5,145 204,139.5 202.5,134.5 C201,129.5 202,124 201,119 C199,108 199.5,97 199,86 C199,82.5 198,79 198.5,75.5 M373,217.5 C383.5,217 394,217 404,218 C404.5,220 402.5,221 401,222 C382.5,226.5 365.5,235.5 349,245 C323,261 298.5,280 274,299 C273,298 271.5,297.5 271,296 C266,287.5 261.5,278 256.5,269 C255.5,267.5 256,265.5 257.5,264.5 C292,241 331,222.5 373,217.5 M263.5,142.5 C274.5,141.5 286,145 294.5,152.5 C303,160.5 307.5,172.5 307.5,184 C305.5,202.5 294.5,221 277,228 C269.5,230 261.5,230 255,226 C242,219.5 233.5,206.5 230,193 C224.5,174.5 234.5,153.5 251.5,146 C255.5,144 259.5,143 263.5,142.5 Z" style="stroke:none;fill-rule:evenodd;fill:#00c800;fill-opacity:1;"/>
        </g>
    </g>
</svg>
